<?xml version="1.0" encoding="utf-8"?>
<!-- Generator: Adobe Illustrator 24.2.1, SVG Export Plug-In . SVG Version: 6.00 Build 0)  -->
<svg version="1.1" id="Layer_1" xmlns="http://www.w3.org/2000/svg" xmlns:xlink="http://www.w3.org/1999/xlink" x="0px" y="0px"
	 viewBox="0 0 1920 1080" style="enable-background:new 0 0 1920 1080;" xml:space="preserve">
<style type="text/css">
	.st0{fill:#6D6E70;stroke:#6D6E70;stroke-width:0.75;stroke-miterlimit:10;}
	.st1{fill:#006834;}
</style>
<g>
	<g>
		<path class="st0" d="M775,385.4h-33.5c-12.8,0-23.4,6.3-31.5,18.9s-13,30.2-14.4,52.7l-10.7,167.9c-1.4,22.6,1.1,40.2,7.7,52.7
			c6.6,12.6,16.3,18.9,29.1,18.9h33.5c12.9,0,23.4-6.3,31.5-18.9c8.1-12.6,12.9-30.2,14.4-52.7l1.5-23.7c0.3-4.5-0.9-6.8-3.5-6.8
			h-12.6c-2.6,0-4,2.3-4.3,6.8l-1.4,22.3c-1.8,28.1-10.5,42.1-26.1,42.1h-28.8c-15.5,0-22.3-14-20.5-42.1l10.5-165
			c1.8-28.1,10.4-42.1,25.9-42.1h28.8c15.6,0,22.6,14,20.8,42.1l-1.4,22.3c-0.3,4.5,0.9,6.8,3.5,6.8H806c2.6,0,4-2.3,4.3-6.8
			l1.5-23.7c1.4-22.6-1.1-40.2-7.7-52.7C797.6,391.7,787.9,385.4,775,385.4z"/>
		<path class="st0" d="M918.9,385.4h-33.2c-12.8,0-23.4,6.3-31.5,18.9s-13,30.2-14.4,52.7l-10.7,167.9c-1.4,22.6,1.1,40.2,7.7,52.7
			c6.5,12.6,16.3,18.9,29.1,18.9h33.2c12.8,0,23.3-6.4,31.5-19.1c8.2-12.7,13-30.2,14.4-52.5L955.7,457c1.4-22.3-1.2-39.8-7.7-52.5
			C941.4,391.8,931.7,385.4,918.9,385.4z M935.2,458.5l-10.5,165c-1.8,28.1-10.5,42.1-26.1,42.1h-28.5c-15.5,0-22.3-14-20.5-42.1
			l10.5-165c1.8-28.1,10.4-42.1,25.9-42.1h28.5C930.1,416.4,937,430.4,935.2,458.5z"/>
		<path class="st0" d="M1067.2,385.4h-68.7c-2.6,0-4,2.3-4.3,6.8l-18.9,297.6c-0.3,4.5,0.9,6.8,3.5,6.8h68.7
			c12.8,0,23.4-6.4,31.5-19.1c8.2-12.7,13-30.2,14.4-52.5L1104,457c1.4-22.3-1.2-39.8-7.7-52.5
			C1089.8,391.8,1080.1,385.4,1067.2,385.4z M1083.5,458.5l-10.5,165c-1.8,28.1-10.5,42.1-26.2,42.1H1000c-1.9,0-2.7-1.4-2.5-4.4
			l15.3-240.5c0.2-2.9,1.2-4.4,3.1-4.4h46.9C1078.4,416.4,1085.3,430.4,1083.5,458.5z"/>
		<path class="st0" d="M1234.6,385.4h-87.7c-2.6,0-4,2.3-4.3,6.8l-18.9,297.6c-0.3,4.5,0.9,6.8,3.5,6.8h87.7c2.6,0,4.1-2.3,4.4-6.8
			l1.1-17.4c0.3-4.5-0.9-6.8-3.5-6.8h-68.4c-1.9,0-2.7-1.4-2.5-4.4l6.5-103.1c0.2-2.9,1.2-4.4,3.1-4.4h59.8c2.6,0,4-2.2,4.3-6.8
			l1.1-17.4c0.3-4.5-0.9-6.8-3.5-6.8h-59.8c-1.9,0-2.7-1.5-2.5-4.4l6.2-97.7c0.2-2.9,1.2-4.4,3.1-4.4h68.4c2.6,0,4.1-2.2,4.3-6.8
			l1.1-17.4C1238.3,387.7,1237.2,385.4,1234.6,385.4z"/>
		<path class="st0" d="M1338.2,385.4h-64.2c-2.6,0-4,2.3-4.3,6.8l-18.9,297.6c-0.3,4.5,0.9,6.8,3.5,6.8h12.6c2.6,0,4-2.3,4.3-6.8
			l7.2-112.7c0.2-2.9,1.2-4.4,3.1-4.4h36.9l23.9,117.1c1.2,4.5,3.4,6.8,6.5,6.8h12.6c3.5,0,4.6-2.6,3.3-7.7l-24.9-117.6l0.1-1.9
			c9.2-3.9,16.7-11.7,22.5-23.5c5.8-11.8,9.2-26.7,10.4-44.8l2.8-44c1.4-22.3-1.2-39.8-7.8-52.5
			C1360.8,391.8,1351.1,385.4,1338.2,385.4z M1354.8,458.5l-2.7,43.1c-1.8,27.8-10.7,41.6-26.7,41.6h-42.2c-1.9,0-2.7-1.5-2.5-4.4
			l7.5-118.1c0.2-2.9,1.2-4.4,3.1-4.4h42.2C1349.5,416.4,1356.6,430.4,1354.8,458.5z"/>
		<path class="st0" d="M1481.2,385.4H1417c-2.6,0-4,2.3-4.3,6.8l-18.9,297.6c-0.3,4.5,0.9,6.8,3.5,6.8h12.6c2.6,0,4-2.3,4.3-6.8
			l7.2-112.7c0.2-2.9,1.2-4.4,3.1-4.4h36.9l23.9,117.1c1.2,4.5,3.4,6.8,6.5,6.8h12.6c3.5,0,4.6-2.6,3.3-7.7l-24.9-117.6l0.1-1.9
			c9.2-3.9,16.7-11.7,22.5-23.5c5.8-11.8,9.2-26.7,10.4-44.8l2.8-44c1.4-22.3-1.2-39.8-7.8-52.5
			C1503.8,391.8,1494.1,385.4,1481.2,385.4z M1497.8,458.5l-2.7,43.1c-1.8,27.8-10.7,41.6-26.7,41.6h-42.2c-1.9,0-2.7-1.5-2.5-4.4
			l7.5-118.1c0.2-2.9,1.2-4.4,3.1-4.4h42.2C1492.5,416.4,1499.6,430.4,1497.8,458.5z"/>
		<path class="st0" d="M1647.7,385.4H1560c-2.6,0-4.1,2.3-4.3,6.8l-18.9,297.6c-0.3,4.5,0.9,6.8,3.5,6.8h87.7c2.6,0,4.1-2.3,4.4-6.8
			l1.1-17.4c0.3-4.5-0.9-6.8-3.5-6.8h-68.4c-1.9,0-2.7-1.4-2.5-4.4l6.5-103.1c0.2-2.9,1.2-4.4,3.1-4.4h59.8c2.6,0,4-2.2,4.3-6.8
			l1.1-17.4c0.3-4.5-0.9-6.8-3.5-6.8h-59.8c-1.9,0-2.7-1.5-2.5-4.4l6.2-97.7c0.2-2.9,1.2-4.4,3.1-4.4h68.4c2.6,0,4.1-2.2,4.4-6.8
			l1.1-17.4C1651.5,387.7,1650.3,385.4,1647.7,385.4z"/>
		<path class="st0" d="M1755.3,385.4h-33.5c-12.8,0-23.4,6.3-31.5,18.9s-13,30.2-14.4,52.7l-10.7,167.9c-1.4,22.6,1.1,40.2,7.7,52.7
			c6.6,12.6,16.3,18.9,29.1,18.9h33.5c12.9,0,23.4-6.3,31.5-18.9c8.2-12.6,13-30.2,14.4-52.7l1.5-23.7c0.3-4.5-0.9-6.8-3.5-6.8
			h-12.6c-2.6,0-4.1,2.3-4.3,6.8l-1.4,22.3c-1.8,28.1-10.5,42.1-26.1,42.1h-28.8c-15.5,0-22.3-14-20.5-42.1l10.5-165
			c1.8-28.1,10.4-42.1,25.9-42.1h28.8c15.6,0,22.6,14,20.8,42.1l-1.4,22.3c-0.3,4.5,0.9,6.8,3.5,6.8h12.6c2.6,0,4-2.3,4.3-6.8
			l1.5-23.7c1.4-22.6-1.1-40.2-7.7-52.7C1777.8,391.7,1768.1,385.4,1755.3,385.4z"/>
		<path class="st0" d="M1915.9,385.4h-102c-2.8,0-4.3,2.3-4.6,6.8l-1.1,17.4c-0.3,4.5,1,6.8,3.8,6.8h38c1.9,0,2.7,1.4,2.5,4.4
			l-17.1,269c-0.3,4.5,0.9,6.8,3.5,6.8h12.6c2.6,0,4-2.3,4.3-6.8l17.1-269c0.2-2.9,1.2-4.4,3.1-4.4h38c2.8,0,4.3-2.2,4.6-6.8
			l1.1-17.4C1919.9,387.7,1918.7,385.4,1915.9,385.4z"/>
	</g>
	<g>
		<g>
			<polygon class="st1" points="458.3,324 427.7,348.1 355.2,407 263.7,331.7 263.7,167.5 			"/>
			<polygon class="st1" points="110.2,589.5 8.2,506.7 202.7,352.6 202.7,512.9 			"/>
			<polygon class="st1" points="202.7,696 202.7,852.9 -0.3,692.2 -0.3,535.2 			"/>
			<polygon class="st1" points="466.6,352.5 466.6,514.3 375.1,589.5 272.1,505.4 373.2,425.9 457.6,359.6 			"/>
			<polygon class="st1" points="466.6,696 466.6,852.9 263.7,692.2 263.7,533.9 			"/>
		</g>
	</g>
</g>
</svg>
